<svg width="1087.601" height="171" viewBox="0 0 1087.601 171" xmlns="http://www.w3.org/2000/svg"><g id="svgGroup" stroke-linecap="round" fill-rule="evenodd" font-size="9pt" stroke="#ffffff" stroke-width="0.25mm" fill="#ffffff" style="stroke:#ffffff;stroke-width:0.25mm;fill:#ffffff"><path d="M 486.4 148 L 466.6 148 L 433.8 48.8 L 450.4 43 L 477.2 127.6 L 501.6 51.4 L 521 51.4 L 544.8 127.6 L 571.4 43 L 587.4 48.8 L 554.4 148 L 534.6 148 L 510.6 70.6 L 486.4 148 Z M 0 136.2 L 9.6 120.2 Q 16.8 126.2 25.8 130 A 46.697 46.697 0 0 0 36.541 133.02 A 64.236 64.236 0 0 0 46.8 133.8 Q 57.338 133.8 64.663 130.587 A 27.401 27.401 0 0 0 69.6 127.8 A 20.56 20.56 0 0 0 75.192 121.99 Q 77.825 117.778 77.989 112.332 A 24.232 24.232 0 0 0 78 111.6 Q 78 105.8 75.6 101.3 Q 73.212 96.822 66.368 92.542 A 51.798 51.798 0 0 0 66.3 92.5 Q 59.4 88.2 46 83.2 A 180.825 180.825 0 0 1 36.785 79.338 Q 28.644 75.641 23 71.9 A 43.863 43.863 0 0 1 16.821 67.005 Q 13.387 63.706 11.276 59.975 A 26.605 26.605 0 0 1 10.7 58.9 A 33.333 33.333 0 0 1 7.659 49.557 A 45.856 45.856 0 0 1 7 41.6 Q 7 31.6 12.5 23.5 A 34.355 34.355 0 0 1 21.406 14.625 A 46.771 46.771 0 0 1 28.7 10.5 Q 38.395 6.06 51.784 5.643 A 90.456 90.456 0 0 1 54.6 5.6 Q 67 5.6 76.9 8.1 Q 86.8 10.6 96.2 15.2 L 89.2 31.4 A 62.991 62.991 0 0 0 80.949 27.362 A 83.372 83.372 0 0 0 73.3 24.7 Q 64.2 22 54.2 22 A 54.374 54.374 0 0 0 46.14 22.56 Q 41.876 23.2 38.4 24.573 A 25.233 25.233 0 0 0 33.4 27.2 A 19.803 19.803 0 0 0 29.073 31.129 A 14.719 14.719 0 0 0 25.8 40.6 A 20.929 20.929 0 0 0 26.385 45.643 A 17.123 17.123 0 0 0 28 49.8 Q 30.111 53.639 36.182 57.293 A 47.005 47.005 0 0 0 36.7 57.6 Q 42.129 60.774 52.092 64.645 A 260.029 260.029 0 0 0 56.2 66.2 Q 67.241 70.305 75.026 74.711 A 71.007 71.007 0 0 1 80.9 78.4 Q 90 84.8 93.8 92.3 A 35.157 35.157 0 0 1 97.282 104.025 A 44.311 44.311 0 0 1 97.6 109.4 A 43.42 43.42 0 0 1 96.265 120.401 A 34.209 34.209 0 0 1 91.1 131.6 A 39.236 39.236 0 0 1 77.237 143.645 A 48.713 48.713 0 0 1 73.1 145.6 A 61.043 61.043 0 0 1 58.28 149.608 A 80.054 80.054 0 0 1 46.8 150.4 A 94.734 94.734 0 0 1 31.249 149.175 A 76.098 76.098 0 0 1 20.2 146.5 A 76.412 76.412 0 0 1 9.467 142.135 A 56.865 56.865 0 0 1 0 136.2 Z M 344.4 148 L 326.4 148 L 326.4 0 L 344.4 0 L 344.4 60.6 Q 350 52.4 358.6 47 A 35.144 35.144 0 0 1 372.849 41.981 A 45.19 45.19 0 0 1 378.8 41.6 Q 392.241 41.6 400.491 47.782 A 26.52 26.52 0 0 1 405.1 52.2 A 36.807 36.807 0 0 1 412.308 66.956 Q 413.8 72.995 413.8 80.2 L 413.8 148 L 395.8 148 L 395.8 82.2 A 39.248 39.248 0 0 0 395.128 74.718 Q 394.268 70.289 392.305 66.793 A 21.965 21.965 0 0 0 390.6 64.2 A 16.841 16.841 0 0 0 378.284 57.506 A 23.958 23.958 0 0 0 376 57.4 Q 366.8 57.4 358.5 63.9 Q 350.2 70.4 344.4 79.2 L 344.4 148 Z M 742.6 138 L 730.2 150 L 676.4 94.6 L 676.4 148 L 658.4 148 L 658.4 0 L 676.4 0 L 676.4 84.6 L 723.4 42 L 733.8 53.4 L 693.6 89 L 742.6 138 Z M 1001.6 140 L 1011 124.6 A 57.789 57.789 0 0 0 1022.555 130.957 A 64.322 64.322 0 0 0 1023.4 131.3 A 37.802 37.802 0 0 0 1032.541 133.612 A 48.836 48.836 0 0 0 1038.8 134 A 37.897 37.897 0 0 0 1048.297 132.872 A 27.355 27.355 0 0 0 1060.4 126.3 A 25.611 25.611 0 0 0 1068.582 107.721 A 34.255 34.255 0 0 0 1068.6 106.6 A 29.47 29.47 0 0 0 1066.914 96.449 A 25.751 25.751 0 0 0 1060.1 86.3 Q 1052.739 79.459 1039.904 78.542 A 57.617 57.617 0 0 0 1035.8 78.4 L 1011 78.4 L 1011 8 L 1080.2 8 L 1080.2 24.2 L 1028 24.2 L 1028 62.2 L 1038 62.2 Q 1052.473 62.2 1063.072 66.848 A 45.349 45.349 0 0 1 1064.7 67.6 Q 1075.8 73 1081.7 82.6 Q 1087.6 92.2 1087.6 104.6 A 50.088 50.088 0 0 1 1085.878 117.963 A 42.202 42.202 0 0 1 1081.5 128.3 Q 1075.4 138.6 1064.4 144.5 A 48.85 48.85 0 0 1 1049.166 149.57 A 64.706 64.706 0 0 1 1038.6 150.4 A 92.866 92.866 0 0 1 1029.249 149.954 Q 1024.481 149.471 1020.374 148.463 A 50.387 50.387 0 0 1 1017.6 147.7 Q 1008.8 145 1001.6 140 Z M 955.2 148 L 937.2 148 L 937.2 118.2 L 877.4 118.2 L 877.4 103.8 L 919.2 6.6 L 934.8 13.2 L 897 101.8 L 937.2 101.8 L 937.2 62 L 955.2 62 L 955.2 101.8 L 971.8 101.8 L 971.8 118.2 L 955.2 118.2 L 955.2 148 Z M 251 112.2 L 251 63.4 L 233 63.4 L 233 47.8 L 251.4 47.8 L 255.2 15 L 269 15 L 269 47.8 L 297.8 47.8 L 297.8 63.4 L 269 63.4 L 269 113.6 Q 269 125.2 273.9 129.8 Q 278.8 134.4 285.6 134.4 Q 290.6 134.4 295.1 132.8 A 51.465 51.465 0 0 0 301.456 130.063 A 45.535 45.535 0 0 0 303.4 129 L 308.4 143.4 A 37.092 37.092 0 0 1 305.163 145.112 Q 303.56 145.869 301.669 146.616 A 86.73 86.73 0 0 1 297.6 148.1 Q 290.8 150.4 283.4 150.4 A 36.653 36.653 0 0 1 273.036 149.008 A 27.868 27.868 0 0 1 259.7 140.5 Q 252.415 132.21 251.23 117.961 A 69.555 69.555 0 0 1 251 112.2 Z M 194.8 52.4 L 194.8 44 L 211.2 44 L 211.2 122.8 A 24.3 24.3 0 0 0 211.403 126.071 Q 211.917 129.834 213.726 131.741 A 5.931 5.931 0 0 0 214.9 132.7 Q 218.6 135 223 135 L 219.2 149 A 35.445 35.445 0 0 1 210.671 148.055 Q 199.397 145.256 196.207 134.16 A 27.18 27.18 0 0 1 196 133.4 A 42.614 42.614 0 0 1 189.781 140.252 A 56.996 56.996 0 0 1 183.5 145.1 Q 176.076 150.08 164.856 150.381 A 54.409 54.409 0 0 1 163.4 150.4 Q 150.4 150.4 139.8 143.8 A 45.894 45.894 0 0 1 124.974 128.747 A 55.845 55.845 0 0 1 122.9 125.1 A 54.455 54.455 0 0 1 117.64 109.215 A 73.288 73.288 0 0 1 116.6 96.6 A 66.284 66.284 0 0 1 118.593 80.063 A 55.936 55.936 0 0 1 122.9 68.6 Q 129.2 56.2 140.3 48.9 A 44.595 44.595 0 0 1 162.689 41.687 A 54.775 54.775 0 0 1 165.8 41.6 Q 174.8 41.6 182.1 44.7 A 52.004 52.004 0 0 1 190.673 49.287 A 44.206 44.206 0 0 1 194.8 52.4 Z M 864.6 171 L 744.6 171 L 744.6 159 L 864.6 159 L 864.6 171 Z M 626.4 148 L 608.4 148 L 608.4 44 L 626.4 44 L 626.4 148 Z M 193.2 121.4 L 193.2 65.6 Q 187.8 61.8 181.3 59.5 Q 174.8 57.2 167.6 57.2 A 31.849 31.849 0 0 0 157.658 58.708 A 28.047 28.047 0 0 0 150.7 62.1 A 32.601 32.601 0 0 0 140.662 72.948 A 39.925 39.925 0 0 0 139.2 75.7 A 41.326 41.326 0 0 0 135.693 87.054 A 55.356 55.356 0 0 0 135 96 Q 135 107.2 139.2 115.9 Q 143.4 124.6 150.8 129.5 Q 158.2 134.4 167.4 134.4 Q 175 134.4 181.8 130.7 A 38.901 38.901 0 0 0 191.24 123.597 A 36.142 36.142 0 0 0 193.2 121.4 Z M 608.674 22.576 A 11.945 11.945 0 0 0 617.4 26.2 Q 623.2 26.2 626.6 22.7 A 11.554 11.554 0 0 0 629.45 17.766 A 15.022 15.022 0 0 0 630 13.6 A 14.52 14.52 0 0 0 629.999 13.438 A 12.121 12.121 0 0 0 626.3 4.7 A 14.789 14.789 0 0 0 626.184 4.585 A 12.117 12.117 0 0 0 617.4 1 A 16.527 16.527 0 0 0 614.088 1.316 A 11.322 11.322 0 0 0 608.2 4.4 A 11.176 11.176 0 0 0 605.258 9.664 A 15.974 15.974 0 0 0 604.8 13.6 Q 604.8 18.6 608.5 22.4 A 14.936 14.936 0 0 0 608.674 22.576 Z" vector-effect="non-scaling-stroke"/></g></svg>